<svg width="93" height="93" viewBox="0 0 93 93" fill="none" xmlns="http://www.w3.org/2000/svg">
<g clip-path="url(#clip0_104_2)">
<path d="M92.3643 40.6149L35.6924 7.89706C34.0652 6.96077 32.1331 6.70781 30.3197 7.19361C28.5063 7.67941 26.9594 8.86435 26.0182 10.4887L19.4937 21.7889L15.1503 29.311C14.2135 30.9388 13.9604 32.8717 14.4467 34.6858C14.9329 36.4999 16.1187 38.0471 17.7441 38.9881L37.1746 50.2055L34.1528 55.3583C33.7508 56.0403 33.1782 56.606 32.4913 56.9995C31.8044 57.393 31.0268 57.6009 30.2352 57.6027H18.8906V48.9566C18.8906 48.6193 18.7567 48.2959 18.5182 48.0575C18.2798 47.819 17.9564 47.6851 17.6191 47.6851H10.7168V46.0445C10.7151 44.5516 10.1213 43.1204 9.06564 42.0648C8.01003 41.0092 6.5788 40.4154 5.08594 40.4136H1.27148C1.10448 40.4135 0.939102 40.4464 0.784795 40.5102C0.630489 40.5741 0.490284 40.6678 0.372196 40.7858C0.254109 40.9039 0.160456 41.0441 0.0965917 41.1984C0.0327274 41.3527 -9.53029e-05 41.5181 2.07846e-07 41.6851V84.7826C-9.53029e-05 84.9496 0.0327274 85.115 0.0965917 85.2693C0.160456 85.4236 0.254109 85.5638 0.372196 85.6819C0.490284 85.8 0.630489 85.8937 0.784795 85.9575C0.939102 86.0214 1.10448 86.0542 1.27148 86.0541H5.08594C6.5788 86.0524 8.01003 85.4586 9.06564 84.403C10.1213 83.3474 10.7151 81.9161 10.7168 80.4233V76.3843H17.6191C17.9564 76.3843 18.2798 76.2504 18.5182 76.0119C18.7567 75.7735 18.8906 75.45 18.8906 75.1128V68.8644H30.2352C32.9896 68.8585 35.695 68.1356 38.0852 66.7667C40.4754 65.3978 42.468 63.4302 43.8669 61.0575L46.9279 55.8378L57.5786 61.9867C58.651 62.6089 59.8685 62.9373 61.1083 62.9385C61.7315 62.9383 62.3519 62.8562 62.9537 62.6944C64.1103 62.3868 65.1693 61.7894 66.0307 60.9587C67.4238 61.605 68.9408 61.9407 70.4766 61.9424C71.4177 61.9418 72.3548 61.8177 73.2636 61.5733C75.5819 60.9572 77.6232 59.5743 79.0551 57.6499L81.6591 59.1532C81.8037 59.2368 81.9634 59.2911 82.129 59.3129C82.2946 59.3348 82.4629 59.3237 82.6242 59.2805C82.7856 59.2372 82.9368 59.1626 83.0693 59.0608C83.2018 58.9591 83.3129 58.8322 83.3963 58.6874L92.8271 42.3536C92.9108 42.209 92.9653 42.0494 92.9874 41.8838C93.0095 41.7182 92.9987 41.5498 92.9558 41.3884C92.9128 41.2269 92.8384 41.0755 92.7369 40.9428C92.6354 40.8101 92.5088 40.6987 92.3643 40.6149V40.6149ZM8.17383 80.4233C8.17306 81.242 7.84748 82.027 7.26856 82.6059C6.68963 83.1848 5.90466 83.5104 5.08594 83.5112H2.54297V42.9566H5.08594C5.90466 42.9574 6.68963 43.283 7.26856 43.8619C7.84748 44.4408 8.17306 45.2258 8.17383 46.0445V80.4233ZM16.3477 73.8413H10.7168V50.228H16.3477V73.8413ZM41.6727 59.7707C40.4992 61.7618 38.8274 63.413 36.8219 64.5618C34.8164 65.7105 32.5464 66.3172 30.2352 66.3221H18.8906V60.1464H30.2352C31.47 60.1437 32.6829 59.8195 33.7545 59.2057C34.826 58.5919 35.7193 57.7096 36.3463 56.6458L39.3797 51.4785L44.7286 54.5664L41.6727 59.7707ZM58.8516 59.7845L19.0156 36.7859C17.9735 36.1828 17.2132 35.191 16.9016 34.028C16.5899 32.865 16.7524 31.6259 17.3532 30.5825L21.0587 24.1619L57.5663 45.2395L68.759 51.7015L65.0528 58.1251L65.0477 58.1331C64.951 58.2971 64.844 58.4549 64.7273 58.6053V58.6104C64.0568 59.4853 63.0912 60.0867 62.0103 60.3027C60.9294 60.5187 59.8068 60.3345 58.8516 59.7845V59.7845ZM72.6105 59.1168C70.945 59.5671 69.1793 59.4742 67.5703 58.8516L70.9655 52.9716L76.8456 56.3661C75.7625 57.7109 74.2782 58.6746 72.609 59.1168H72.6105ZM81.8342 56.3123L73.6117 51.5649L71.1305 50.1329L43.0583 33.9262L22.3316 21.9597L28.2204 11.7602C28.8237 10.7184 29.8157 9.9584 30.9787 9.64702C32.1416 9.33564 33.3806 9.49829 34.4238 10.0993L89.9913 42.1821L81.8342 56.3123Z" fill="black" fill-opacity="0.2"/>
<path d="M76.4009 49.4012C77.1414 49.8313 77.9823 50.0581 78.8386 50.0588C79.2684 50.0584 79.6964 50.0017 80.1115 49.8902C81.2042 49.5975 82.1617 48.935 82.8207 48.0155C83.4798 47.0961 83.7996 45.9765 83.7258 44.8477C83.6519 43.7188 83.1889 42.6505 82.4157 41.8247C81.6425 40.999 80.6068 40.4668 79.4853 40.319C78.3637 40.1712 77.2256 40.4169 76.2648 41.0142C75.3041 41.6114 74.5802 42.5233 74.2164 43.5945C73.8526 44.6657 73.8715 45.8299 74.2698 46.8887C74.6682 47.9475 75.4213 48.8354 76.4009 49.4012V49.4012ZM76.8143 43.9934C76.9682 43.7267 77.1733 43.4931 77.4178 43.3061C77.6623 43.119 77.9415 42.9822 78.2391 42.9036C78.4382 42.8503 78.6434 42.8232 78.8494 42.8229C79.3665 42.823 79.8692 42.9937 80.2794 43.3085C80.6896 43.6234 80.9844 44.0648 81.1182 44.5643C81.2519 45.0638 81.2171 45.5934 81.0192 46.0711C80.8212 46.5488 80.4712 46.9479 80.0233 47.2064C79.5754 47.4648 79.0548 47.5683 78.5422 47.5007C78.0295 47.4331 77.5535 47.1983 77.1879 46.8326C76.8223 46.4669 76.5876 45.9908 76.5202 45.4781C76.4528 44.9654 76.5564 44.4448 76.8151 43.997L76.8143 43.9934Z" fill="black" fill-opacity="0.2"/>
<path d="M33.0585 36.5243L22.6396 30.5077C22.495 30.4229 22.335 30.3675 22.1688 30.3448C22.0027 30.3221 21.8337 30.3325 21.6716 30.3753C21.5095 30.4182 21.3574 30.4927 21.2242 30.5945C21.091 30.6964 20.9793 30.8236 20.8955 30.9688C20.8116 31.114 20.7573 31.2744 20.7357 31.4407C20.7141 31.607 20.7256 31.7759 20.7695 31.9377C20.8135 32.0995 20.889 32.2511 20.9917 32.3836C21.0944 32.5161 21.2224 32.627 21.3681 32.7099L31.79 38.7258C32.0808 38.8779 32.4192 38.9116 32.7343 38.8199C33.0494 38.7282 33.3169 38.5182 33.4808 38.2339C33.6446 37.9495 33.6922 37.6128 33.6135 37.2942C33.5348 36.9756 33.3359 36.6997 33.0585 36.5243V36.5243Z" fill="black" fill-opacity="0.2"/>
<rect x="16.7329" y="60.5909" width="5.10795" height="12.3295" fill="#C4C4C4"/>
</g>
<defs>
<clipPath id="clip0_104_2">
<rect width="93" height="93" fill="white"/>
</clipPath>
</defs>
</svg>
